<svg width="134.9" height="72.401" viewBox="0 0 134.9 72.401" xmlns="http://www.w3.org/2000/svg"><g id="svgGroup" stroke-linecap="round" fill-rule="nonzero" font-size="9pt" stroke="#000" stroke-width="0" fill="#000" style="stroke:#000;stroke-width:0;fill:#000"><path d="M 134.9 12.101 L 124.5 21.701 A 27.452 27.452 0 0 0 119.807 17.717 A 23.094 23.094 0 0 0 116.2 15.751 A 23.986 23.986 0 0 0 107.712 13.831 A 28.028 28.028 0 0 0 106.4 13.801 A 28.224 28.224 0 0 0 100.804 14.335 A 23.397 23.397 0 0 0 97.1 15.401 Q 92.9 17.001 89.85 20.001 Q 86.8 23.001 85.15 27.101 A 22.883 22.883 0 0 0 83.638 33.385 A 28.113 28.113 0 0 0 83.5 36.201 A 25.406 25.406 0 0 0 84.145 42.013 A 21.925 21.925 0 0 0 85.15 45.201 Q 86.8 49.301 89.85 52.351 Q 92.9 55.401 97.05 57.001 A 23.995 23.995 0 0 0 103.455 58.474 A 29.167 29.167 0 0 0 106.2 58.601 Q 111 58.601 115.55 57.051 A 24.484 24.484 0 0 0 121.002 54.363 A 31.808 31.808 0 0 0 124.4 51.801 L 133.6 63.501 L 118.8 61.401 L 118.8 35.101 L 133.6 35.101 L 133.6 63.501 Q 127.9 67.801 120.35 70.101 Q 112.8 72.401 105.3 72.401 A 45.332 45.332 0 0 1 95.481 71.372 A 38.697 38.697 0 0 1 90.05 69.751 Q 83.1 67.101 77.95 62.201 Q 72.8 57.301 69.95 50.701 A 35.155 35.155 0 0 1 67.204 39.177 A 41.848 41.848 0 0 1 67.1 36.201 A 38.15 38.15 0 0 1 68.298 26.502 A 33.498 33.498 0 0 1 69.95 21.701 Q 72.8 15.101 78 10.201 Q 83.2 5.301 90.2 2.651 Q 97.2 0.001 105.6 0.001 A 48.126 48.126 0 0 1 114.959 0.875 A 38.805 38.805 0 0 1 122.35 3.101 Q 129.8 6.201 134.9 12.101 Z M 16.1 71.201 L 0 71.201 L 0 1.201 L 16.1 1.201 L 16.1 71.201 Z M 25.9 43.301 L 14.5 55.201 L 13.6 36.501 L 47.1 1.201 L 65.1 1.201 L 34.9 33.701 L 25.9 43.301 Z M 66.8 71.201 L 47.9 71.201 L 23 40.701 L 33.6 29.201 L 66.8 71.201 Z"/></g></svg>